<svg width="20" height="20" viewBox="0 0 20 20" fill="none" xmlns="http://www.w3.org/2000/svg">
<path fill-rule="evenodd" clip-rule="evenodd" d="M3.33268 4.16699C3.33268 3.70675 3.70578 3.33366 4.16602 3.33366H15.8327C16.2929 3.33366 16.666 3.70675 16.666 4.16699V15.8337C16.666 16.2939 16.2929 16.667 15.8327 16.667L14.9993 16.667C14.9993 14.3658 13.1339 12.5003 10.8327 12.5003H9.16602C6.86483 12.5003 4.99935 14.3658 4.99935 16.667L4.16602 16.667C3.70578 16.667 3.33268 16.2939 3.33268 15.8337V4.16699ZM6.66602 16.667H13.3327C13.3327 15.2863 12.2134 14.167 10.8327 14.167H9.16602C7.7853 14.167 6.66602 15.2863 6.66602 16.667ZM4.16602 1.66699C2.7853 1.66699 1.66602 2.78628 1.66602 4.16699V15.8337C1.66602 17.2144 2.7853 18.3337 4.16602 18.3337H15.8327C17.2134 18.3337 18.3327 17.2144 18.3327 15.8337V4.16699C18.3327 2.78628 17.2134 1.66699 15.8327 1.66699H4.16602ZM8.33268 8.33366C8.33268 9.25413 9.07887 10.0003 9.99935 10.0003C10.9198 10.0003 11.666 9.25413 11.666 8.33366C11.666 7.41318 10.9198 6.66699 9.99935 6.66699C9.07887 6.66699 8.33268 7.41318 8.33268 8.33366ZM9.99935 5.00033C8.1584 5.00033 6.66602 6.49271 6.66602 8.33366C6.66602 10.1746 8.1584 11.667 9.99935 11.667C11.8403 11.667 13.3327 10.1746 13.3327 8.33366C13.3327 6.49271 11.8403 5.00033 9.99935 5.00033Z" fill="white"/>
</svg>
