<svg width="64" height="64" viewBox="0 0 64 64" fill="none" xmlns="http://www.w3.org/2000/svg">
<g opacity="0.2">
<path d="M12.2215 46.189C9.47487 43.2717 8.00021 39.9997 8.00021 34.6957C8.00021 25.3623 14.5522 16.997 24.0802 12.861L26.4615 16.5357C17.5682 21.3463 15.8295 27.589 15.1362 31.525C16.5682 30.7837 18.4429 30.525 20.2802 30.6957C25.0909 31.141 28.8829 35.0903 28.8829 39.9997C28.8829 42.475 27.8995 44.849 26.1492 46.5993C24.3989 48.3497 22.0249 49.333 19.5495 49.333C16.6882 49.333 13.9522 48.0263 12.2215 46.189ZM38.8882 46.189C36.1415 43.2717 34.6669 39.9997 34.6669 34.6957C34.6669 25.3623 41.2189 16.997 50.7469 12.861L53.1282 16.5357C44.2349 21.3463 42.4962 27.589 41.8029 31.525C43.2349 30.7837 45.1095 30.525 46.9469 30.6957C51.7575 31.141 55.5469 35.0903 55.5469 39.9997C55.5469 42.475 54.5635 44.849 52.8132 46.5993C51.0629 48.3497 48.6889 49.333 46.2135 49.333C43.3522 49.333 40.6162 48.0263 38.8855 46.189L38.8882 46.189Z" fill="white"/>
</g>
</svg>
