<svg width="20" height="20" viewBox="0 0 20 20" fill="none" xmlns="http://www.w3.org/2000/svg">
<path fill-rule="evenodd" clip-rule="evenodd" d="M4.16602 3.33301C2.7853 3.33301 1.66602 4.4523 1.66602 5.83301V14.1663C1.66602 15.5471 2.7853 16.6663 4.16602 16.6663H15.8327C17.2134 16.6663 18.3327 15.5471 18.3327 14.1663V5.83301C18.3327 4.4523 17.2134 3.33301 15.8327 3.33301H4.16602ZM3.40878 5.48462C3.54069 5.19837 3.83015 4.99967 4.16602 4.99967H15.8327C16.1685 4.99967 16.458 5.19837 16.5899 5.48462L10.511 10.2127C10.21 10.4468 9.78866 10.4468 9.48773 10.2127L3.40878 5.48462ZM3.33268 7.53687V12.3871L6.34319 9.87838L3.33268 7.53687ZM3.40176 14.4991C3.53022 14.7937 3.82407 14.9997 4.16602 14.9997H15.8327C16.1746 14.9997 16.4685 14.7937 16.5969 14.4991L12.3089 10.9257L11.5342 11.5283C10.6314 12.2304 9.36727 12.2304 8.4645 11.5283L7.68979 10.9257L3.40176 14.4991ZM16.666 12.3871V7.53687L13.6555 9.87838L16.666 12.3871Z" fill="white"/>
</svg>
