<svg width="660" height="715" viewBox="0 0 660 715" fill="none" xmlns="http://www.w3.org/2000/svg">
<path d="M617.949 441.778L268.738 643.044C420.086 680.724 574.964 591.461 617.949 441.778Z" fill="url(#paint0_linear_562_3158)"/>
<path d="M414.615 84.6769C260.742 43.4892 102.712 134.569 61.5073 288.189C58.5894 299.067 56.2109 309.914 54.7022 320.816L446.323 95.1076C436.231 91.1697 425.512 87.5936 414.615 84.6769Z" fill="url(#paint1_linear_562_3158)"/>
<path d="M516.337 54.7543L124.543 280.563C114.662 346.556 128.37 411.796 160.096 466.651L659.999 178.534C628.273 123.679 578.529 79.2089 516.337 54.7543Z" fill="url(#paint2_linear_562_3158)"/>
<path d="M540.12 247.627L40.2168 535.744C77.1998 599.689 138.608 649.836 215.678 670.551C217.001 670.906 218.324 671.262 219.526 671.408L568.159 470.475C568.512 469.153 568.865 467.831 569.339 466.719C589.694 389.855 577.103 311.572 540.12 247.627Z" fill="url(#paint3_linear_562_3158)"/>
<defs>
<linearGradient id="paint0_linear_562_3158" x1="626.726" y1="502.642" x2="322.479" y2="673.18" gradientUnits="userSpaceOnUse">
<stop stop-color="#FFB147"/>
<stop offset="0.520264" stop-color="#FF6C63"/>
<stop offset="1" stop-color="#B86ADF"/>
</linearGradient>
<linearGradient id="paint1_linear_562_3158" x1="407.89" y1="79.8912" x2="67.1154" y2="271.911" gradientUnits="userSpaceOnUse">
<stop stop-color="#FFB147"/>
<stop offset="0.520264" stop-color="#FF6C63"/>
<stop offset="1" stop-color="#B86ADF"/>
</linearGradient>
<linearGradient id="paint2_linear_562_3158" x1="529.427" y1="187.437" x2="170.404" y2="394.639" gradientUnits="userSpaceOnUse">
<stop stop-color="#FF6C63"/>
<stop offset="0.520264" stop-color="#FFB147" stop-opacity="0.2"/>
</linearGradient>
<linearGradient id="paint3_linear_562_3158" x1="508.384" y1="379.656" x2="106.629" y2="622.398" gradientUnits="userSpaceOnUse">
<stop stop-color="#B238EF"/>
<stop offset="1" stop-color="#FFB147" stop-opacity="0.33"/>
</linearGradient>
</defs>
</svg>
