<svg width="20" height="20" viewBox="0 0 20 20" fill="none" xmlns="http://www.w3.org/2000/svg">
<path fill-rule="evenodd" clip-rule="evenodd" d="M13.4177 10.2127L9.83333 16.1251L6.24894 10.2127C4.51041 7.34506 6.53036 3.64242 9.83333 3.64242C13.1363 3.64242 15.1563 7.34506 13.4177 10.2127ZM4.88131 11.0772C2.47943 7.11538 5.2701 2 9.83333 2C14.3966 2 17.1872 7.11538 14.7854 11.0772L10.3689 18.362C10.1227 18.7682 9.54401 18.7682 9.29776 18.362L4.88131 11.0772ZM9.83349 6.10606C8.94516 6.10606 8.22501 6.84139 8.22501 7.74848C8.22501 8.65556 8.94516 9.3909 9.83349 9.3909C10.7218 9.3909 11.442 8.65556 11.442 7.74848C11.442 6.84139 10.7218 6.10606 9.83349 6.10606Z" fill="white"/>
</svg>
