<svg width="20" height="20" viewBox="0 0 20 20" fill="none" xmlns="http://www.w3.org/2000/svg">
<path fill-rule="evenodd" clip-rule="evenodd" d="M4.10812 3.69071C5.57258 2.22625 7.94695 2.22625 9.41142 3.69071C10.8759 5.15518 10.8759 7.52955 9.41142 8.99401C8.86631 9.53912 8.19514 9.88132 7.49175 10.0206L9.56331 12.0922C9.70262 11.3888 10.0448 10.7176 10.5899 10.1725C12.0544 8.70806 14.4288 8.70806 15.8932 10.1725C17.3577 11.637 17.3577 14.0114 15.8932 15.4758C14.5283 16.8407 12.3731 16.9335 10.9007 15.7543L10.8846 15.7705L10.5899 15.4758L4.10812 8.99401L3.81349 8.69939L3.82967 8.6832C2.65042 7.21083 2.74324 5.05559 4.10812 3.69071ZM11.7684 14.2973C12.582 15.1109 13.9011 15.1109 14.7147 14.2973C15.5283 13.4837 15.5283 12.1646 14.7147 11.351C13.9011 10.5374 12.582 10.5374 11.7684 11.351C10.9548 12.1646 10.9548 13.4837 11.7684 14.2973ZM8.2329 7.8155C7.41931 8.62909 6.10022 8.62909 5.28663 7.8155C4.47303 7.00191 4.47303 5.68282 5.28663 4.86922C6.10022 4.05563 7.41931 4.05563 8.2329 4.86922C9.0465 5.68282 9.0465 7.00191 8.2329 7.8155Z" fill="white"/>
</svg>
